<mxfile host="app.diagrams.net" agent="Mozilla/5.0 (X11; Linux x86_64) AppleWebKit/537.36 (KHTML, like Gecko) Chrome/132.0.0.0 Safari/537.36" version="26.1.1">
  <diagram name="Page-1" id="ynTKS2v_TZv17swCPKiS">
    <mxGraphModel dx="1097" dy="831" grid="1" gridSize="10" guides="1" tooltips="1" connect="1" arrows="1" fold="1" page="1" pageScale="1" pageWidth="827" pageHeight="1169" math="0" shadow="0">
      <root>
        <mxCell id="0" />
        <mxCell id="1" parent="0" />
        <mxCell id="q0k77vlWbUJt_Vhd_Qly-42" value="" style="rounded=1;whiteSpace=wrap;html=1;strokeColor=none;fillColor=#EEEEEE;fontStyle=1;opacity=50;" parent="1" vertex="1">
          <mxGeometry x="336.5" y="40" width="543.5" height="436.5" as="geometry" />
        </mxCell>
        <mxCell id="ltitkqDnKHNBnyyiyaz9-67" value="" style="rounded=1;whiteSpace=wrap;html=1;strokeColor=none;fillColor=#EEEEEE;fontStyle=1;opacity=50;" parent="1" vertex="1">
          <mxGeometry x="40" y="111" width="270" height="565.5" as="geometry" />
        </mxCell>
        <mxCell id="q0k77vlWbUJt_Vhd_Qly-6" style="edgeStyle=orthogonalEdgeStyle;rounded=0;orthogonalLoop=1;jettySize=auto;html=1;exitX=0.5;exitY=1;exitDx=0;exitDy=0;entryX=0.5;entryY=0;entryDx=0;entryDy=0;" parent="1" source="ltitkqDnKHNBnyyiyaz9-6" target="q0k77vlWbUJt_Vhd_Qly-5" edge="1">
          <mxGeometry relative="1" as="geometry" />
        </mxCell>
        <mxCell id="ltitkqDnKHNBnyyiyaz9-6" value="&lt;font style=&quot;font-size: 18px;&quot;&gt;WelfordStats&lt;/font&gt;" style="rounded=1;whiteSpace=wrap;html=1;fillColor=#68A9D4;" parent="1" vertex="1">
          <mxGeometry x="377.94" y="56.5" width="154.75" height="40" as="geometry" />
        </mxCell>
        <mxCell id="ltitkqDnKHNBnyyiyaz9-41" value="Key:" style="text;html=1;align=center;verticalAlign=middle;whiteSpace=wrap;rounded=1;fontStyle=1;" parent="1" vertex="1">
          <mxGeometry x="756.5" y="495.5" width="45" height="25" as="geometry" />
        </mxCell>
        <mxCell id="ltitkqDnKHNBnyyiyaz9-43" value="Methods" style="rounded=1;whiteSpace=wrap;html=1;fillColor=#F2A25C;" parent="1" vertex="1">
          <mxGeometry x="711.5" y="608.5" width="135" height="30" as="geometry" />
        </mxCell>
        <mxCell id="ltitkqDnKHNBnyyiyaz9-44" value="Instance of R6 class" style="rounded=1;whiteSpace=wrap;html=1;fillColor=#A9E4F5;" parent="1" vertex="1">
          <mxGeometry x="711.5" y="569.5" width="135" height="30" as="geometry" />
        </mxCell>
        <mxCell id="ltitkqDnKHNBnyyiyaz9-45" value="R6 class" style="rounded=1;whiteSpace=wrap;html=1;fillColor=#68A9D4;" parent="1" vertex="1">
          <mxGeometry x="711.5" y="531" width="135" height="30" as="geometry" />
        </mxCell>
        <mxCell id="ltitkqDnKHNBnyyiyaz9-88" value="" style="curved=1;endArrow=classic;html=1;rounded=1;dashed=1;exitX=1;exitY=0;exitDx=0;exitDy=0;" parent="1" edge="1">
          <mxGeometry width="50" height="50" relative="1" as="geometry">
            <mxPoint x="292.8199999999998" y="505" as="sourcePoint" />
            <mxPoint x="620" y="366.5" as="targetPoint" />
            <Array as="points">
              <mxPoint x="660" y="526.5" />
              <mxPoint x="550" y="386.5" />
            </Array>
          </mxGeometry>
        </mxCell>
        <mxCell id="q0k77vlWbUJt_Vhd_Qly-1" value="&lt;font style=&quot;font-size: 14px;&quot;&gt;new()&lt;/font&gt;" style="rounded=1;whiteSpace=wrap;html=1;fillColor=#F2A25C;" parent="1" vertex="1">
          <mxGeometry x="413.00999999999993" y="206.5" width="64.37" height="30" as="geometry" />
        </mxCell>
        <mxCell id="q0k77vlWbUJt_Vhd_Qly-34" style="edgeStyle=orthogonalEdgeStyle;rounded=1;orthogonalLoop=1;jettySize=auto;html=1;exitX=0;exitY=0.5;exitDx=0;exitDy=0;entryX=0.75;entryY=0;entryDx=0;entryDy=0;curved=0;" parent="1" source="q0k77vlWbUJt_Vhd_Qly-3" target="q0k77vlWbUJt_Vhd_Qly-32" edge="1">
          <mxGeometry relative="1" as="geometry" />
        </mxCell>
        <mxCell id="q0k77vlWbUJt_Vhd_Qly-3" value="&lt;font style=&quot;font-size: 14px;&quot;&gt;update()&lt;/font&gt;" style="rounded=1;whiteSpace=wrap;html=1;fillColor=#F2A25C;" parent="1" vertex="1">
          <mxGeometry x="404.41" y="356.5" width="81.56" height="30" as="geometry" />
        </mxCell>
        <mxCell id="q0k77vlWbUJt_Vhd_Qly-7" style="edgeStyle=orthogonalEdgeStyle;rounded=0;orthogonalLoop=1;jettySize=auto;html=1;exitX=0.5;exitY=1;exitDx=0;exitDy=0;entryX=0.5;entryY=0;entryDx=0;entryDy=0;" parent="1" source="q0k77vlWbUJt_Vhd_Qly-5" target="q0k77vlWbUJt_Vhd_Qly-1" edge="1">
          <mxGeometry relative="1" as="geometry" />
        </mxCell>
        <mxCell id="q0k77vlWbUJt_Vhd_Qly-22" style="edgeStyle=orthogonalEdgeStyle;rounded=1;orthogonalLoop=1;jettySize=auto;html=1;exitX=1;exitY=0.5;exitDx=0;exitDy=0;curved=0;" parent="1" source="q0k77vlWbUJt_Vhd_Qly-5" edge="1" target="q0k77vlWbUJt_Vhd_Qly-19">
          <mxGeometry relative="1" as="geometry">
            <mxPoint x="730" y="196.5" as="targetPoint" />
          </mxGeometry>
        </mxCell>
        <mxCell id="q0k77vlWbUJt_Vhd_Qly-5" value="&lt;font style=&quot;font-size: 14px;&quot;&gt;stats&lt;/font&gt;" style="rounded=1;whiteSpace=wrap;html=1;fillColor=#A9E4F5;" parent="1" vertex="1">
          <mxGeometry x="405.94" y="127.5" width="78.5" height="30" as="geometry" />
        </mxCell>
        <mxCell id="1YQfei4QBcS1-SSEy_-4-2" style="edgeStyle=orthogonalEdgeStyle;rounded=0;orthogonalLoop=1;jettySize=auto;html=1;exitX=0.5;exitY=1;exitDx=0;exitDy=0;" edge="1" parent="1" source="q0k77vlWbUJt_Vhd_Qly-8" target="q0k77vlWbUJt_Vhd_Qly-3">
          <mxGeometry relative="1" as="geometry" />
        </mxCell>
        <mxCell id="q0k77vlWbUJt_Vhd_Qly-8" value="Sets up class, including empty variables to store results, and calls update() for each value in data (if provided)" style="text;html=1;align=center;verticalAlign=middle;whiteSpace=wrap;rounded=1;" parent="1" vertex="1">
          <mxGeometry x="357.69" y="242.5" width="175" height="58.5" as="geometry" />
        </mxCell>
        <mxCell id="q0k77vlWbUJt_Vhd_Qly-10" value="Updates count and running calculation of mean and sum of squares.&lt;div&gt;Will call observer$update().&lt;/div&gt;" style="text;html=1;align=center;verticalAlign=middle;whiteSpace=wrap;rounded=1;" parent="1" vertex="1">
          <mxGeometry x="336.5" y="386.5" width="217.38" height="50" as="geometry" />
        </mxCell>
        <mxCell id="q0k77vlWbUJt_Vhd_Qly-12" value="&lt;span style=&quot;font-size: 14px;&quot;&gt;variance()&lt;/span&gt;" style="rounded=1;whiteSpace=wrap;html=1;fillColor=#F2A25C;" parent="1" vertex="1">
          <mxGeometry x="580" y="319" width="90" height="30" as="geometry" />
        </mxCell>
        <mxCell id="q0k77vlWbUJt_Vhd_Qly-13" value="&lt;span style=&quot;font-size: 14px;&quot;&gt;std()&lt;/span&gt;" style="rounded=1;whiteSpace=wrap;html=1;fillColor=#F2A25C;" parent="1" vertex="1">
          <mxGeometry x="680.5" y="319" width="90" height="30" as="geometry" />
        </mxCell>
        <mxCell id="q0k77vlWbUJt_Vhd_Qly-14" value="&lt;span style=&quot;font-size: 14px;&quot;&gt;std_error()&lt;/span&gt;" style="rounded=1;whiteSpace=wrap;html=1;fillColor=#F2A25C;" parent="1" vertex="1">
          <mxGeometry x="778" y="319" width="90" height="30" as="geometry" />
        </mxCell>
        <mxCell id="q0k77vlWbUJt_Vhd_Qly-15" value="&lt;span style=&quot;font-size: 14px;&quot;&gt;half_width()&lt;/span&gt;" style="rounded=1;whiteSpace=wrap;html=1;fillColor=#F2A25C;" parent="1" vertex="1">
          <mxGeometry x="635.5" y="358" width="90" height="30" as="geometry" />
        </mxCell>
        <mxCell id="q0k77vlWbUJt_Vhd_Qly-16" value="&lt;span style=&quot;font-size: 14px;&quot;&gt;lci()&lt;/span&gt;" style="rounded=1;whiteSpace=wrap;html=1;fillColor=#F2A25C;" parent="1" vertex="1">
          <mxGeometry x="734" y="357" width="90" height="30" as="geometry" />
        </mxCell>
        <mxCell id="q0k77vlWbUJt_Vhd_Qly-17" value="&lt;span style=&quot;font-size: 14px;&quot;&gt;uci()&lt;/span&gt;" style="rounded=1;whiteSpace=wrap;html=1;fillColor=#F2A25C;" parent="1" vertex="1">
          <mxGeometry x="635.5" y="394" width="90" height="30" as="geometry" />
        </mxCell>
        <mxCell id="q0k77vlWbUJt_Vhd_Qly-18" value="&lt;span style=&quot;font-size: 14px;&quot;&gt;deviation()&lt;/span&gt;" style="rounded=1;whiteSpace=wrap;html=1;fillColor=#F2A25C;" parent="1" vertex="1">
          <mxGeometry x="734" y="394" width="90" height="30" as="geometry" />
        </mxCell>
        <mxCell id="q0k77vlWbUJt_Vhd_Qly-19" value="Can calculate various statistics based on the current count, mean and variance" style="text;html=1;align=center;verticalAlign=middle;whiteSpace=wrap;rounded=1;" parent="1" vertex="1">
          <mxGeometry x="610.75" y="279" width="229.5" height="33" as="geometry" />
        </mxCell>
        <mxCell id="q0k77vlWbUJt_Vhd_Qly-27" style="edgeStyle=orthogonalEdgeStyle;rounded=0;orthogonalLoop=1;jettySize=auto;html=1;exitX=0.5;exitY=1;exitDx=0;exitDy=0;entryX=0.5;entryY=0;entryDx=0;entryDy=0;" parent="1" source="q0k77vlWbUJt_Vhd_Qly-24" target="q0k77vlWbUJt_Vhd_Qly-25" edge="1">
          <mxGeometry relative="1" as="geometry" />
        </mxCell>
        <mxCell id="q0k77vlWbUJt_Vhd_Qly-24" value="&lt;font style=&quot;font-size: 18px;&quot;&gt;ReplicationTabuliser&lt;/font&gt;" style="rounded=1;whiteSpace=wrap;html=1;fillColor=#68A9D4;" parent="1" vertex="1">
          <mxGeometry x="80" y="127.5" width="190" height="40" as="geometry" />
        </mxCell>
        <mxCell id="q0k77vlWbUJt_Vhd_Qly-35" style="edgeStyle=orthogonalEdgeStyle;shape=connector;curved=0;rounded=1;orthogonalLoop=1;jettySize=auto;html=1;exitX=0.5;exitY=1;exitDx=0;exitDy=0;entryX=0.5;entryY=0;entryDx=0;entryDy=0;strokeColor=default;align=center;verticalAlign=middle;fontFamily=Helvetica;fontSize=11;fontColor=default;labelBackgroundColor=default;endArrow=classic;" parent="1" source="q0k77vlWbUJt_Vhd_Qly-25" target="q0k77vlWbUJt_Vhd_Qly-29" edge="1">
          <mxGeometry relative="1" as="geometry" />
        </mxCell>
        <mxCell id="q0k77vlWbUJt_Vhd_Qly-36" style="edgeStyle=orthogonalEdgeStyle;shape=connector;curved=0;rounded=1;orthogonalLoop=1;jettySize=auto;html=1;exitX=0.5;exitY=1;exitDx=0;exitDy=0;entryX=0.5;entryY=0;entryDx=0;entryDy=0;strokeColor=default;align=center;verticalAlign=middle;fontFamily=Helvetica;fontSize=11;fontColor=default;labelBackgroundColor=default;endArrow=classic;" parent="1" source="q0k77vlWbUJt_Vhd_Qly-25" target="q0k77vlWbUJt_Vhd_Qly-32" edge="1">
          <mxGeometry relative="1" as="geometry">
            <Array as="points">
              <mxPoint x="166" y="376.5" />
              <mxPoint x="235" y="376.5" />
            </Array>
          </mxGeometry>
        </mxCell>
        <mxCell id="q0k77vlWbUJt_Vhd_Qly-41" style="edgeStyle=orthogonalEdgeStyle;shape=connector;curved=0;rounded=1;orthogonalLoop=1;jettySize=auto;html=1;exitX=0.5;exitY=1;exitDx=0;exitDy=0;entryX=0.5;entryY=0;entryDx=0;entryDy=0;strokeColor=default;align=center;verticalAlign=middle;fontFamily=Helvetica;fontSize=11;fontColor=default;labelBackgroundColor=default;endArrow=classic;" parent="1" source="q0k77vlWbUJt_Vhd_Qly-25" target="q0k77vlWbUJt_Vhd_Qly-37" edge="1">
          <mxGeometry relative="1" as="geometry">
            <Array as="points">
              <mxPoint x="166" y="556.5" />
              <mxPoint x="238" y="556.5" />
            </Array>
          </mxGeometry>
        </mxCell>
        <mxCell id="q0k77vlWbUJt_Vhd_Qly-25" value="&lt;font style=&quot;font-size: 14px;&quot;&gt;observer&lt;/font&gt;" style="rounded=1;whiteSpace=wrap;html=1;fillColor=#A9E4F5;" parent="1" vertex="1">
          <mxGeometry x="127.13" y="202" width="78.5" height="30" as="geometry" />
        </mxCell>
        <mxCell id="q0k77vlWbUJt_Vhd_Qly-29" value="&lt;font style=&quot;font-size: 14px;&quot;&gt;new()&lt;/font&gt;" style="rounded=1;whiteSpace=wrap;html=1;fillColor=#F2A25C;" parent="1" vertex="1">
          <mxGeometry x="205.62999999999994" y="282" width="64.37" height="30" as="geometry" />
        </mxCell>
        <mxCell id="q0k77vlWbUJt_Vhd_Qly-31" value="Creates empty lists to store results" style="text;html=1;align=center;verticalAlign=middle;whiteSpace=wrap;rounded=1;" parent="1" vertex="1">
          <mxGeometry x="182.82" y="312" width="110" height="40" as="geometry" />
        </mxCell>
        <mxCell id="q0k77vlWbUJt_Vhd_Qly-32" value="&lt;font style=&quot;font-size: 14px;&quot;&gt;update()&lt;/font&gt;" style="rounded=1;whiteSpace=wrap;html=1;fillColor=#F2A25C;" parent="1" vertex="1">
          <mxGeometry x="200" y="456.5" width="70" height="30" as="geometry" />
        </mxCell>
        <mxCell id="q0k77vlWbUJt_Vhd_Qly-33" value="Add statistics from stats to the lists" style="text;html=1;align=center;verticalAlign=middle;whiteSpace=wrap;rounded=1;" parent="1" vertex="1">
          <mxGeometry x="180" y="488" width="110" height="40" as="geometry" />
        </mxCell>
        <mxCell id="q0k77vlWbUJt_Vhd_Qly-37" value="&lt;font style=&quot;font-size: 14px;&quot;&gt;summary_table()&lt;/font&gt;" style="rounded=1;whiteSpace=wrap;html=1;fillColor=#F2A25C;" parent="1" vertex="1">
          <mxGeometry x="179.22999999999996" y="590" width="117.18" height="30" as="geometry" />
        </mxCell>
        <mxCell id="q0k77vlWbUJt_Vhd_Qly-39" value="Converts lists into a dataframe" style="text;html=1;align=center;verticalAlign=middle;whiteSpace=wrap;rounded=1;" parent="1" vertex="1">
          <mxGeometry x="179.23000000000002" y="617" width="110" height="41.5" as="geometry" />
        </mxCell>
      </root>
    </mxGraphModel>
  </diagram>
</mxfile>
